<svg width="417" height="325" viewBox="0 0 417 325" fill="none" xmlns="http://www.w3.org/2000/svg">
<path d="M132.149 40.1432L131.579 18.0181C131.579 18.0181 146.115 4.23027 152.5 2.08423C152.5 2.08423 171.102 11.4091 175.492 18.9677C175.492 18.9677 174.427 34.1609 173.477 40.0482C173.477 40.0482 145.564 43.7706 132.149 40.1432Z" fill="white"/>
<path d="M160.88 64.1671C160.082 64.1481 159.34 63.6164 159.112 62.7997C158.808 61.7932 159.397 60.7297 160.386 60.4448C162.476 59.8181 164.395 58.7356 166.219 57.1213C166.998 56.4376 168.214 56.4946 168.898 57.2922C169.601 58.0708 169.525 59.2863 168.727 59.97C166.466 61.9641 164.091 63.3125 161.45 64.0911C161.26 64.1481 161.07 64.1671 160.88 64.1671Z" fill="white"/>
<path d="M171.786 87.774C171.178 87.793 170.589 87.5271 170.209 87.0144C168.784 85.1152 167.454 83.1971 166.2 81.3929L165.763 80.7851C165.155 79.9305 165.364 78.7341 166.238 78.1453C167.093 77.5376 168.29 77.7465 168.879 78.6201L169.316 79.2278C170.551 80.994 171.862 82.8742 173.268 84.7544C173.895 85.59 173.724 86.7865 172.888 87.4132C172.546 87.6411 172.166 87.774 171.786 87.774Z" fill="white"/>
<path d="M368.204 270.016C367.368 270.035 366.589 269.523 366.342 268.687C365.829 267.111 364.499 265.724 362.105 264.319C361.193 263.787 360.908 262.629 361.44 261.717C361.972 260.806 363.131 260.521 364.043 261.052C367.273 262.952 369.154 265.022 369.971 267.548C370.294 268.554 369.743 269.618 368.736 269.94C368.546 269.978 368.375 269.997 368.204 270.016Z" fill="white"/>
<path d="M133.593 80.1208L123.199 42.2327C123.199 42.2327 153.564 31.3886 183.605 42.5746L170.931 80.1208C170.931 80.1208 148.661 86.388 133.593 80.1208Z" fill="#387E9E"/>
<path d="M147.197 59.2298C147.197 53.6273 149.952 49.8669 153.525 49.8669C157.097 49.8669 160.118 53.6273 160.118 59.2298C160.118 64.8323 157.268 68.3267 153.696 68.3267C150.143 68.3267 147.197 64.8323 147.197 59.2298Z" fill="white"/>
<path d="M126.657 185.846C126.657 185.846 130.648 92.9776 133.422 80.3103C133.422 80.3103 152.157 76.493 171.083 80.1393C171.083 80.1393 178.018 158.726 177.163 186.131L126.657 185.846Z" fill="#61ACC6"/>
<path opacity="0.4" d="M125.043 186.948C122.42 179.427 117.917 171.375 117.917 163.246C117.917 158.175 120.197 148.414 125.993 146.951C131.351 145.603 134.429 149.458 137.85 152.744C142.144 156.846 147.996 159.277 154.02 159.904C167.416 161.328 184.327 157.473 181.572 176.863C179.368 192.417 155.939 193.917 143.683 194.05C138.591 194.107 132.377 193.462 127.893 191.676" fill="#61ACC6"/>
<path d="M-9 290.576C-9 290.576 15.6685 210.59 174.267 209.003C174.267 209.003 296.093 207.442 336 286.38C335.974 286.38 211.604 370.409 -9 290.576Z" fill="#F7C663"/>
<path opacity="0.7" d="M226.073 239.649C226.073 240.617 225.294 241.396 224.325 241.396C223.356 241.396 222.577 240.617 222.577 239.649C222.577 238.68 223.356 237.901 224.325 237.901C225.275 237.901 226.073 238.68 226.073 239.649Z" fill="#F7C663"/>
<path opacity="0.7" d="M228.696 233.476C228.696 234.445 227.916 235.224 226.947 235.224C225.978 235.224 225.199 234.445 225.199 233.476C225.199 232.508 225.978 231.729 226.947 231.729C227.916 231.729 228.696 232.508 228.696 233.476Z" fill="#F7C663"/>
<path opacity="0.7" d="M247.697 241.7C247.697 242.668 246.918 243.447 245.949 243.447C244.98 243.447 244.201 242.668 244.201 241.7C244.201 240.731 244.98 239.953 245.949 239.953C246.918 239.972 247.697 240.75 247.697 241.7Z" fill="#F7C663"/>
<path opacity="0.7" d="M226.947 248.67C226.947 249.638 226.168 250.417 225.199 250.417C224.23 250.417 223.451 249.638 223.451 248.67C223.451 247.701 224.23 246.922 225.199 246.922C226.168 246.922 226.947 247.701 226.947 248.67Z" fill="#F7C663"/>
<path opacity="0.7" d="M217.922 260.065C217.922 261.033 217.143 261.812 216.174 261.812C215.205 261.812 214.426 261.033 214.426 260.065C214.426 259.096 215.205 258.317 216.174 258.317C217.143 258.317 217.922 259.096 217.922 260.065Z" fill="#F7C663"/>
<path opacity="0.7" d="M228.696 260.691C228.696 261.66 227.916 262.439 226.947 262.439C225.978 262.439 225.199 261.66 225.199 260.691C225.199 259.723 225.978 258.944 226.947 258.944C227.916 258.963 228.696 259.742 228.696 260.691Z" fill="#F7C663"/>
<path opacity="0.7" d="M237.075 264.186C237.075 265.154 236.296 265.933 235.327 265.933C234.358 265.933 233.579 265.154 233.579 264.186C233.579 263.217 234.358 262.438 235.327 262.438C236.296 262.438 237.075 263.217 237.075 264.186Z" fill="#F7C663"/>
<path opacity="0.7" d="M239.926 257.216C239.926 258.184 239.147 258.963 238.178 258.963C237.209 258.963 236.43 258.184 236.43 257.216C236.43 256.247 237.209 255.469 238.178 255.469C239.147 255.469 239.926 256.247 239.926 257.216Z" fill="#F7C663"/>
<path opacity="0.7" d="M249.426 252.145C249.426 253.114 248.647 253.892 247.678 253.892C246.709 253.892 245.93 253.114 245.93 252.145C245.93 251.177 246.709 250.398 247.678 250.398C248.647 250.417 249.426 251.196 249.426 252.145Z" fill="#F7C663"/>
<path opacity="0.7" d="M256.723 253.646C256.723 254.614 255.944 255.393 254.975 255.393C254.006 255.393 253.227 254.614 253.227 253.646C253.227 252.677 254.006 251.898 254.975 251.898C255.944 251.917 256.723 252.696 256.723 253.646Z" fill="#F7C663"/>
<path opacity="0.7" d="M218.625 246.923C218.625 247.891 217.846 248.67 216.877 248.67C215.908 248.67 215.129 247.891 215.129 246.923C215.129 245.954 215.908 245.175 216.877 245.175C217.846 245.194 218.625 245.973 218.625 246.923Z" fill="#F7C663"/>
<path opacity="0.7" d="M217.922 239.022C217.922 239.99 217.143 240.769 216.174 240.769C215.205 240.769 214.426 239.99 214.426 239.022C214.426 238.053 215.205 237.275 216.174 237.275C217.143 237.275 217.922 238.053 217.922 239.022Z" fill="#F7C663"/>
<path opacity="0.7" d="M211.176 243.447C211.176 244.416 210.397 245.194 209.428 245.194C208.459 245.194 207.68 244.416 207.68 243.447C207.68 242.478 208.459 241.7 209.428 241.7C210.397 241.7 211.176 242.478 211.176 243.447Z" fill="#F7C663"/>
<path opacity="0.7" d="M194.721 251.917C194.721 252.886 193.942 253.664 192.973 253.664C192.004 253.664 191.225 252.886 191.225 251.917C191.225 250.949 192.004 250.17 192.973 250.17C193.923 250.17 194.721 250.949 194.721 251.917Z" fill="#F7C663"/>
<path opacity="0.7" d="M206.71 250.417C206.71 251.385 205.931 252.164 204.962 252.164C203.993 252.164 203.214 251.385 203.214 250.417C203.214 249.448 203.993 248.67 204.962 248.67C205.931 248.67 206.71 249.448 206.71 250.417Z" fill="#F7C663"/>
<path opacity="0.7" d="M199.11 257.216C199.11 258.184 198.33 258.963 197.361 258.963C196.392 258.963 195.613 258.184 195.613 257.216C195.613 256.247 196.392 255.469 197.361 255.469C198.33 255.469 199.11 256.247 199.11 257.216Z" fill="#F7C663"/>
<path d="M96.2549 225.139L96.8059 184.041C96.8059 184.041 158.466 168.981 203.423 183.225L206.711 226.241C206.711 226.222 120.102 222.385 96.2549 225.139Z" fill="white"/>
</svg>
