<svg width="121" height="139" viewBox="0 0 121 139" fill="none" xmlns="http://www.w3.org/2000/svg">
<path d="M73.9141 52.9179L100.763 56.0135C102.454 56.2034 103.671 57.7417 103.481 59.4319L99.5472 93.3697C99.3572 95.06 97.8181 96.2755 96.1269 96.0855L69.2778 92.9899C67.5866 92.8 66.3706 91.2617 66.5606 89.5714L70.4939 55.6336C70.6649 53.9434 72.204 52.7279 73.9141 52.9179Z" fill="#E3F8FF"/>
<path d="M78.1914 70.3143C78.1914 66.8008 81.0417 63.9331 84.576 63.9331C88.1102 63.9331 90.9604 66.7818 90.9604 70.3143C90.9604 73.8277 88.1102 76.6764 84.576 76.6764C81.0417 76.6764 78.1914 73.8467 78.1914 70.3143Z" fill="#387E9E"/>
<path d="M67.6065 0.00771912C68.2906 0.0836851 68.7656 0.691416 68.6896 1.37511L58.5998 90.4642C58.5238 91.1479 57.9157 91.6227 57.2316 91.5468C56.5476 91.4708 56.0726 90.8631 56.1486 90.1794L66.2384 1.09023C66.3144 0.425532 66.9225 -0.0682469 67.6065 0.00771912Z" fill="#F7C663"/>
<path d="M2.64062 74.8155C2.64062 74.8155 55.3698 23.5955 66.5237 4.86987C66.5237 4.86987 50.7144 42.7389 60.2912 67.4089C60.2912 67.4089 30.8769 59.5654 2.64062 74.8155Z" fill="#EF7160"/>
<path d="M17.7468 129.662C12.9394 129.339 -0.95069 84.1966 0.284407 72.9916C0.284407 72.9916 93.7527 88.8305 120.108 85.6209C120.108 85.6209 104.983 124.231 87.5202 138.645C87.5392 138.664 22.5731 129.985 17.7468 129.662Z" fill="#DFF74F"/>
</svg>
