<svg width="13" height="13" viewBox="0 0 13 13" fill="none" xmlns="http://www.w3.org/2000/svg">
<path d="M2.68456 12.3517V4.32484H0.187919V12.3517H2.68456ZM1.42282 3.25101C2.22819 3.25101 2.87248 2.57987 2.87248 1.7745C2.87248 0.99598 2.22819 0.351685 1.42282 0.351685C0.644295 0.351685 0 0.99598 0 1.7745C0 2.57987 0.644295 3.25101 1.42282 3.25101ZM12.0268 12.3517V7.949C12.0268 5.80135 11.5436 4.13692 9.02013 4.13692C7.81208 4.13692 7.00671 4.80806 6.65772 5.42551H6.63087V4.32484H4.24161V12.3517H6.73826V8.37853C6.73826 7.33155 6.92617 6.33826 8.21477 6.33826C9.50336 6.33826 9.5302 7.51947 9.5302 8.45907V12.3517H12.0268Z" fill="#FDFFFF"/>
</svg>
