<svg width="17" height="16" viewBox="0 0 17 16" fill="none" xmlns="http://www.w3.org/2000/svg">
<path d="M3.57942 16V5.29754H0.250559V16H3.57942ZM1.89709 3.86577C2.97092 3.86577 3.82998 2.97092 3.82998 1.89709C3.82998 0.85906 2.97092 0 1.89709 0C0.85906 0 0 0.85906 0 1.89709C0 2.97092 0.85906 3.86577 1.89709 3.86577ZM16.0358 16V10.1298C16.0358 7.26622 15.3915 5.04698 12.0268 5.04698C10.4161 5.04698 9.34228 5.94183 8.87696 6.7651H8.84116V5.29754H5.65548V16H8.98434V10.7025C8.98434 9.30649 9.2349 7.9821 10.953 7.9821C12.6711 7.9821 12.7069 9.55705 12.7069 10.8098V16H16.0358Z" fill="#151C26"/>
</svg>
