<svg width="18" height="15" viewBox="0 0 18 15" fill="none" xmlns="http://www.w3.org/2000/svg">
<path d="M15.5695 3.82712C16.2479 3.31831 16.8584 2.70774 17.3333 1.99541C16.7228 2.26678 16.0104 2.4703 15.2981 2.53814C16.0444 2.09717 16.5871 1.41877 16.8584 0.570756C16.18 0.977801 15.3999 1.28308 14.6197 1.45269C13.9413 0.740358 13.0254 0.333313 12.0078 0.333313C10.0404 0.333313 8.44618 1.92757 8.44618 3.89496C8.44618 4.16632 8.4801 4.43768 8.54795 4.70905C5.59687 4.53944 2.95108 3.11479 1.18721 0.977801C0.881931 1.48661 0.712329 2.09717 0.712329 2.77558C0.712329 3.99672 1.3229 5.08217 2.30659 5.72666C1.72994 5.69274 1.15329 5.55706 0.678408 5.28569V5.31961C0.678408 7.04956 1.89954 8.47421 3.52772 8.81342C3.25636 8.88126 2.91716 8.9491 2.61187 8.9491C2.37443 8.9491 2.17091 8.91518 1.93346 8.88126C2.37443 10.3059 3.69733 11.3235 5.25767 11.3574C4.03653 12.3072 2.51011 12.8839 0.84801 12.8839C0.542727 12.8839 0.271363 12.8499 0 12.816C1.56034 13.8336 3.42596 14.4103 5.46119 14.4103C12.0078 14.4103 15.5695 9.01694 15.5695 4.302C15.5695 4.1324 15.5695 3.99672 15.5695 3.82712Z" fill="#151C26"/>
</svg>
