<svg width="18" height="15" viewBox="0 0 18 15" fill="none" xmlns="http://www.w3.org/2000/svg">
<path d="M15.5695 3.8273C16.2479 3.31849 16.8584 2.70793 17.3333 1.9956C16.7228 2.26696 16.0104 2.47048 15.2981 2.53832C16.0444 2.09736 16.5871 1.41895 16.8584 0.570939C16.18 0.977984 15.3999 1.28327 14.6197 1.45287C13.9413 0.740541 13.0254 0.333496 12.0078 0.333496C10.0404 0.333496 8.44618 1.92776 8.44618 3.89514C8.44618 4.1665 8.4801 4.43787 8.54795 4.70923C5.59687 4.53963 2.95108 3.11497 1.18721 0.977984C0.881931 1.48679 0.712329 2.09736 0.712329 2.77577C0.712329 3.9969 1.3229 5.08236 2.30659 5.72684C1.72994 5.69292 1.15329 5.55724 0.678408 5.28588V5.3198C0.678408 7.04974 1.89954 8.4744 3.52772 8.8136C3.25636 8.88144 2.91716 8.94928 2.61187 8.94928C2.37443 8.94928 2.17091 8.91536 1.93346 8.88144C2.37443 10.3061 3.69733 11.3237 5.25767 11.3576C4.03653 12.3074 2.51011 12.8841 0.84801 12.8841C0.542727 12.8841 0.271363 12.8501 0 12.8162C1.56034 13.8338 3.42596 14.4105 5.46119 14.4105C12.0078 14.4105 15.5695 9.01712 15.5695 4.30219C15.5695 4.13258 15.5695 3.9969 15.5695 3.8273Z" fill="#F7FAFF"/>
</svg>
