<?xml version="1.0" standalone="no"?>
<!DOCTYPE svg PUBLIC "-//W3C//DTD SVG 20010904//EN"
 "http://www.w3.org/TR/2001/REC-SVG-20010904/DTD/svg10.dtd">
<svg version="1.0" xmlns="http://www.w3.org/2000/svg"
 width="495.000000pt" height="495.000000pt" viewBox="0 0 495.000000 495.000000"
 preserveAspectRatio="xMidYMid meet">
<metadata>
Created by potrace 1.14, written by Peter Selinger 2001-2017
</metadata>
<g transform="translate(0.000000,495.000000) scale(0.100000,-0.100000)"
fill="#000000" stroke="none">
<path d="M2361 4034 c-167 -45 -295 -183 -329 -355 -16 -81 2 -213 35 -266 11
-17 -10 -9 -104 37 -187 92 -329 132 -523 146 l-90 7 0 -227 0 -226 33 -1
c120 -3 248 -37 372 -99 178 -89 311 -223 402 -405 62 -121 87 -244 97 -460 5
-111 7 -125 28 -225 15 -73 14 -67 36 -135 76 -231 218 -436 431 -623 124
-108 397 -241 550 -267 19 -3 37 -8 41 -10 29 -18 347 -27 455 -12 266 36 554
180 752 376 241 240 374 532 399 879 l6 82 -226 0 -226 0 -1 -27 c-5 -313
-205 -629 -488 -773 -55 -28 -161 -68 -198 -75 -160 -30 -310 -29 -435 4 -250
65 -465 238 -581 468 -32 62 -73 181 -83 243 -10 57 -11 250 -1 312 25 158
113 336 228 460 160 171 413 285 637 288 l22 0 0 226 0 227 -87 -7 c-149 -12
-225 -27 -348 -68 -73 -24 -243 -104 -267 -126 -23 -20 -23 -9 2 58 56 149 13
333 -105 453 -115 116 -280 163 -434 121z m172 -245 c50 -14 113 -71 128 -117
25 -75 12 -143 -37 -201 -114 -135 -335 -59 -348 119 -6 75 45 157 119 191 46
21 84 23 138 8z"/>
<path d="M5 2158 c26 -362 186 -684 458 -923 110 -97 236 -174 402 -245 89
-39 265 -77 393 -86 l92 -7 0 227 c0 208 -1 226 -17 226 -127 3 -253 35 -378
95 -220 105 -394 308 -465 542 -26 86 -26 87 -35 186 l-8 77 -224 0 -225 0 7
-92z"/>
</g>
</svg>
