<svg width="67" height="43" viewBox="0 0 67 43" fill="none" xmlns="http://www.w3.org/2000/svg">
<path d="M48.6992 36.9136V42.912C58.7802 42.912 67.0001 34.6065 67.0001 24.4553H61.1066C61.1066 31.3766 55.5233 36.9136 48.6992 36.9136Z" fill="#006CFF"/>
<path d="M48.6994 36.9136V42.912C38.6183 42.912 30.3984 34.6065 30.3984 24.4553H36.292C36.447 31.3766 42.0304 36.9136 48.6994 36.9136Z" fill="#3F8CF2"/>
<path d="M18.3009 42.912V36.9136C11.4769 36.9136 6.04861 31.3766 6.04861 24.4553H0C0 34.7603 8.21991 42.912 18.3009 42.912Z" fill="#006CFF"/>
<path d="M38.773 9.07455C39.2383 8.15172 39.5485 7.07508 39.5485 5.99843C39.5485 2.6147 36.7568 0 33.4999 0C30.2429 0 27.4512 2.76851 27.4512 5.99843C27.4512 7.07508 27.7614 8.15172 28.2267 9.07455C25.2799 7.22888 21.8679 5.99843 18.3008 5.99843V11.9969C25.1249 11.9969 30.5531 17.5339 30.5531 24.4552H36.4466C36.4466 17.5339 41.8749 11.9969 48.6989 11.9969V5.99843C45.1318 5.99843 41.7198 7.22888 38.773 9.07455ZM33.4999 3.22993C35.0508 3.22993 36.2915 4.46037 36.2915 5.99843C36.2915 7.53649 35.0508 8.76694 33.4999 8.76694C31.9489 8.76694 30.7082 7.53649 30.7082 5.99843C30.7082 4.46037 31.9489 3.22993 33.4999 3.22993Z" fill="#006CFF"/>
</svg>
