<svg width="36" height="36" viewBox="0 0 36 36" fill="none" xmlns="http://www.w3.org/2000/svg">
<path d="M4.5 25.5H31.5C32.3284 25.5 33 26.1716 33 27C33 27.7693 32.4209 28.4033 31.6749 28.4899L31.5 28.5H4.5C3.67157 28.5 3 27.8284 3 27C3 26.2307 3.57906 25.5967 4.32507 25.5101L4.5 25.5H31.5H4.5ZM4.49982 16.5L31.4998 16.4968C32.3282 16.4967 33 17.1681 33 17.9966C33 18.7658 32.4211 19.3999 31.6751 19.4866L31.5002 19.4968L4.50018 19.5C3.67175 19.5001 3 18.8286 3 18.0002C3 17.2309 3.5789 16.5968 4.32489 16.5101L4.49982 16.5L31.4998 16.4968L4.49982 16.5ZM4.5 7.5H31.5C32.3284 7.5 33 8.17157 33 9C33 9.76925 32.4209 10.4033 31.6749 10.4899L31.5 10.5H4.5C3.67157 10.5 3 9.82843 3 9C3 8.23075 3.57906 7.59674 4.32507 7.51009L4.5 7.5H31.5H4.5Z" fill="#151C26"/>
</svg>
